<svg width="24" height="24" viewBox="0 0 24 24" fill="none" xmlns="http://www.w3.org/2000/svg">
<path fill-rule="evenodd" clip-rule="evenodd" d="M6.25 5.50001C6.24993 4.83163 6.45593 4.17949 6.83993 3.63244C7.22393 3.08539 7.76725 2.67003 8.39587 2.44297C9.02449 2.2159 9.70783 2.18816 10.3528 2.36354C10.9977 2.53892 11.5729 2.90887 12 3.42301C12.5274 2.78363 13.2791 2.3699 14.1015 2.26645C14.9238 2.163 15.7546 2.37765 16.424 2.86648C17.0933 3.35532 17.5506 4.08141 17.7022 4.89624C17.8539 5.71107 17.6886 6.55306 17.24 7.25001H18C18.7293 7.25001 19.4288 7.53974 19.9445 8.05546C20.4603 8.57119 20.75 9.27066 20.75 10V12C20.7502 12.3826 20.6251 12.7547 20.3937 13.0593C20.1624 13.364 19.8376 13.5845 19.469 13.687C19.613 15.513 19.529 17.352 19.219 19.16C19.1287 19.6853 18.8703 20.1671 18.4825 20.5329C18.0948 20.8986 17.5987 21.1285 17.069 21.188L16.154 21.29C13.3929 21.5986 10.6061 21.5986 7.845 21.29L6.931 21.188C6.4013 21.1285 5.90524 20.8986 5.51749 20.5329C5.12974 20.1671 4.87128 19.6853 4.781 19.16C4.46995 17.3532 4.38596 15.5146 4.531 13.687C4.16244 13.5845 3.83762 13.364 3.60627 13.0593C3.37492 12.7547 3.24978 12.3826 3.25 12V10C3.25 9.27066 3.53973 8.57119 4.05546 8.05546C4.57118 7.53974 5.27065 7.25001 6 7.25001H6.76C6.42603 6.7275 6.24903 6.12013 6.25 5.50001ZM11.25 5.50001C11.25 5.03588 11.0656 4.59076 10.7374 4.26257C10.4092 3.93438 9.96413 3.75001 9.5 3.75001C9.03587 3.75001 8.59075 3.93438 8.26256 4.26257C7.93437 4.59076 7.75 5.03588 7.75 5.50001C7.75 5.96413 7.93437 6.40925 8.26256 6.73744C8.59075 7.06563 9.03587 7.25001 9.5 7.25001C9.96413 7.25001 10.4092 7.06563 10.7374 6.73744C11.0656 6.40925 11.25 5.96413 11.25 5.50001ZM14.5 7.25001C14.7298 7.25001 14.9574 7.20474 15.1697 7.1168C15.382 7.02885 15.5749 6.89995 15.7374 6.73744C15.8999 6.57494 16.0288 6.38202 16.1168 6.1697C16.2047 5.95738 16.25 5.72982 16.25 5.50001C16.25 5.27019 16.2047 5.04263 16.1168 4.83031C16.0288 4.61799 15.8999 4.42507 15.7374 4.26257C15.5749 4.10007 15.382 3.97116 15.1697 3.88322C14.9574 3.79527 14.7298 3.75001 14.5 3.75001C14.0359 3.75001 13.5908 3.93438 13.2626 4.26257C12.9344 4.59076 12.75 5.03588 12.75 5.50001C12.75 5.96413 12.9344 6.40925 13.2626 6.73744C13.5908 7.06563 14.0359 7.25001 14.5 7.25001ZM4.75 10C4.75 9.31001 5.31 8.75001 6 8.75001H11.25V12.25H5C4.9337 12.25 4.87011 12.2237 4.82322 12.1768C4.77634 12.1299 4.75 12.0663 4.75 12V10ZM12.75 13.75H17.969C18.109 15.47 18.033 17.203 17.741 18.906C17.7057 19.1109 17.6048 19.2989 17.4535 19.4415C17.3022 19.5842 17.1087 19.6738 16.902 19.697L15.988 19.8C14.9113 19.92 13.832 19.9913 12.75 20.014V13.75ZM12.75 12.25H19C19.0663 12.25 19.1299 12.2237 19.1768 12.1768C19.2237 12.1299 19.25 12.0663 19.25 12V10C19.25 9.31001 18.69 8.75001 18 8.75001H12.75V12.25ZM11.25 13.75V20.014C10.168 19.9914 9.08757 19.92 8.012 19.8L7.098 19.697C6.89149 19.6739 6.69807 19.5844 6.54678 19.4419C6.39549 19.2994 6.29451 19.1117 6.259 18.907C5.96707 17.2044 5.89047 15.4718 6.031 13.75H11.25Z" fill="#CF9233"/>
</svg>
