<svg width="24" height="24" viewBox="0 0 24 24" fill="none" xmlns="http://www.w3.org/2000/svg">
<path d="M17.9999 13.7143C18.6819 13.7143 19.3359 13.9852 19.8182 14.4674C20.3004 14.9497 20.5713 15.6037 20.5713 16.2857V16.8986C20.5713 19.9646 16.9628 22.2857 11.9999 22.2857C7.03704 22.2857 3.42847 20.0854 3.42847 16.8986V16.2857C3.42847 15.6037 3.69938 14.9497 4.18162 14.4674C4.66386 13.9852 5.31791 13.7143 5.9999 13.7143H17.9999ZM17.9999 15H5.9999C5.68042 15 5.37238 15.1189 5.1358 15.3336C4.89923 15.5484 4.75106 15.8435 4.72018 16.1614L4.71418 16.2857V16.8986C4.71418 19.1906 7.61904 21 11.9999 21C16.2222 21 19.1613 19.1957 19.2822 17.0366L19.2856 16.8986V16.2857C19.2856 15.9662 19.1667 15.6582 18.952 15.4216C18.7373 15.1851 18.4422 15.0369 18.1242 15.006L17.9999 15ZM11.9999 1.71429C12.6753 1.71429 13.344 1.84732 13.968 2.10577C14.5919 2.36422 15.1589 2.74304 15.6364 3.2206C16.114 3.69816 16.4928 4.26511 16.7513 4.88907C17.0097 5.51303 17.1428 6.18178 17.1428 6.85715C17.1428 7.53252 17.0097 8.20128 16.7513 8.82524C16.4928 9.4492 16.114 10.0161 15.6364 10.4937C15.1589 10.9713 14.5919 11.3501 13.968 11.6085C13.344 11.867 12.6753 12 11.9999 12C10.6359 12 9.32782 11.4582 8.36335 10.4937C7.39887 9.52923 6.85704 8.22112 6.85704 6.85715C6.85704 5.49318 7.39887 4.18508 8.36335 3.2206C9.32782 2.25613 10.6359 1.71429 11.9999 1.71429ZM11.9999 3.00001C10.9769 3.00001 9.99584 3.40639 9.27248 4.12974C8.54913 4.85309 8.14275 5.83417 8.14275 6.85715C8.14275 7.88013 8.54913 8.86121 9.27248 9.58456C9.99584 10.3079 10.9769 10.7143 11.9999 10.7143C13.0229 10.7143 14.004 10.3079 14.7273 9.58456C15.4507 8.86121 15.857 7.88013 15.857 6.85715C15.857 5.83417 15.4507 4.85309 14.7273 4.12974C14.004 3.40639 13.0229 3.00001 11.9999 3.00001Z" fill="#CF9233"/>
</svg>
